<svg width="2560" height="1710" viewBox="0 0 2560 1710" fill="none" xmlns="http://www.w3.org/2000/svg">
<rect x="-6.10352e-05" width="2560" height="1468" fill="url(#paint0_linear_106_287)"/>
<mask id="mask0_106_287" style="mask-type:alpha" maskUnits="userSpaceOnUse" x="0" y="0" width="2560" height="1468">
<rect x="-6.10352e-05" width="2560" height="1468" fill="white"/>
</mask>
<g mask="url(#mask0_106_287)">
<path fill-rule="evenodd" clip-rule="evenodd" d="M-6.10352e-05 0L805.395 0C805.395 0 694 0 834 230.824C915.574 365.32 1045 513.536 1045 652.025C1045 806.308 951.878 902.632 904.5 1091.56C858.868 1273.53 1011.65 1468 1011.65 1468H-6.10352e-05V0Z" fill="#8BC34A" fill-opacity="0.15"/>
<path fill-rule="evenodd" clip-rule="evenodd" d="M3127.04 1592.13L2159.94 1484.92C2159.94 1484.92 2564.24 877.933 2397.28 638.229C2300.43 499.192 2180.6 403.613 2177.72 238.914C2174.52 55.4311 2320.66 -30.7509 2364.6 -256.273C2406.92 -473.483 2252.2 -724.954 2252.2 -724.954L3274.23 -742.794L3127.04 1592.13Z" fill="#8BC34A" fill-opacity="0.15"/>
</g>
<path fill-rule="evenodd" clip-rule="evenodd" d="M-3.00012 1223.99C-3.00012 1223.99 214.489 1441.99 533 1441.99C851.511 1441.99 949.24 1197.44 1306.56 1223.8C1663.87 1250.16 1851.36 1385.49 2160.2 1405.8C2760.87 1445.3 3184 1313.3 3184 1313.3L3022.5 1560.5L-97.0001 1495L-3.00012 1223.99Z" fill="white" fill-opacity="0.21"/>
<path fill-rule="evenodd" clip-rule="evenodd" d="M3174.23 1127.54C3174.23 1127.54 2986.07 1370.83 2668 1387.5C2349.93 1404.17 2340.4 1261.32 1984.96 1306.35C1629.51 1351.37 1631.76 1429.69 1324.41 1466.13C1188.49 1482.25 925.969 1095.48 412.841 1316.64C-100.288 1537.8 -948.488 973.413 -948.488 973.413L-226.5 1468L3174 1495L3174.23 1127.54Z" fill="white" fill-opacity="0.2"/>
<path fill-rule="evenodd" clip-rule="evenodd" d="M-3.00012 1301.3C-3.00012 1301.3 61.7265 1446.8 342.5 1446.8C623.273 1446.8 698.018 1238.44 1013 1264.8C1327.98 1291.16 1493.26 1426.49 1765.5 1446.8C2295 1486.3 2668 1354.3 2668 1354.3L2639.5 1495L-32.0001 1468L-3.00012 1301.3Z" fill="white"/>
<defs>
<linearGradient id="paint0_linear_106_287" x1="2874.01" y1="732.697" x2="2019.31" y2="-766.366" gradientUnits="userSpaceOnUse">
<stop stop-color="#9C27B0"/>
<stop offset="1" stop-color="#6A1B9A"/>
</linearGradient>
</defs>
</svg>
