<svg width="518" height="162" viewBox="0 0 518 162" fill="none" xmlns="http://www.w3.org/2000/svg">
<path d="M390.962 141.715C413.585 141.715 431.925 140.274 431.925 138.496C431.925 136.718 413.585 135.277 390.962 135.277C368.339 135.277 350 136.718 350 138.496C350 140.274 368.339 141.715 390.962 141.715Z" fill="#E8E8E8"/>
<path d="M421.535 141.715C442.226 141.715 459 140.274 459 138.496C459 136.718 442.226 135.277 421.535 135.277C400.843 135.277 384.07 136.718 384.07 138.496C384.07 140.274 400.843 141.715 421.535 141.715Z" fill="#E8E8E8"/>
<path d="M418.091 147.696C432.389 147.073 443.943 145.707 443.898 144.645C443.852 143.584 432.224 143.23 417.926 143.853C403.627 144.477 392.073 145.843 392.119 146.904C392.164 147.966 403.792 148.32 418.091 147.696Z" fill="#E8E8E8"/>
<path d="M420.103 47.2404L408.098 47.0272C405.872 46.9876 404.035 48.7737 403.996 51.0164L403.418 84.0085C403.379 86.2512 405.152 88.1013 407.378 88.1409L419.384 88.3541C421.61 88.3936 423.447 86.6076 423.486 84.3648L424.064 51.3728C424.103 49.13 422.33 47.2799 420.103 47.2404Z" fill="#EDA900"/>
<path d="M418.087 47.2047L406.081 46.9915C403.855 46.952 402.018 48.738 401.979 50.9807L401.402 83.9728C401.362 86.2155 403.135 88.0657 405.362 88.1052L417.367 88.3184C419.594 88.358 421.43 86.5719 421.47 84.3292L422.047 51.3371C422.086 49.0944 420.313 47.2443 418.087 47.2047Z" fill="#FFEC00"/>
<path d="M414.244 47.1332L402.238 46.92C400.012 46.8804 398.175 48.6665 398.136 50.9092L397.559 83.9013C397.519 86.144 399.292 87.9942 401.519 88.0337L413.524 88.2469C415.751 88.2864 417.587 86.5004 417.627 84.2577L418.204 51.2656C418.243 49.0229 416.47 47.1727 414.244 47.1332Z" fill="url(#paint0_linear_202_131)"/>
<g style="mix-blend-mode:multiply">
<g style="mix-blend-mode:multiply">
<path d="M401.506 51.8801C402.11 51.8801 402.599 51.3874 402.599 50.7797C402.599 50.1719 402.11 49.6792 401.506 49.6792C400.903 49.6792 400.414 50.1719 400.414 50.7797C400.414 51.3874 400.903 51.8801 401.506 51.8801Z" fill="#FFEC00"/>
</g>
<g style="mix-blend-mode:multiply">
<path d="M407.779 58.7607C408.629 58.7607 409.317 58.0668 409.317 57.2108C409.317 56.3548 408.629 55.6609 407.779 55.6609C406.929 55.6609 406.24 56.3548 406.24 57.2108C406.24 58.0668 406.929 58.7607 407.779 58.7607Z" fill="#FFEC00"/>
</g>
<g style="mix-blend-mode:multiply">
<path d="M413.871 51.4506C414.721 51.4506 415.41 50.7567 415.41 49.9007C415.41 49.0447 414.721 48.3508 413.871 48.3508C413.021 48.3508 412.333 49.0447 412.333 49.9007C412.333 50.7567 413.021 51.4506 413.871 51.4506Z" fill="#FFEC00"/>
</g>
<g style="mix-blend-mode:multiply">
<path d="M406.883 49.9437C407.269 49.9437 407.582 49.6285 407.582 49.2398C407.582 48.851 407.269 48.5359 406.883 48.5359C406.497 48.5359 406.185 48.851 406.185 49.2398C406.185 49.6285 406.497 49.9437 406.883 49.9437Z" fill="#FFEC00"/>
</g>
<g style="mix-blend-mode:multiply">
<path d="M414.462 56.9034C414.848 56.9034 415.16 56.5883 415.16 56.1995C415.16 55.8108 414.848 55.4956 414.462 55.4956C414.076 55.4956 413.763 55.8108 413.763 56.1995C413.763 56.5883 414.076 56.9034 414.462 56.9034Z" fill="#FFEC00"/>
</g>
<g style="mix-blend-mode:multiply">
<path d="M404.288 62.2074C404.674 62.2074 404.987 61.8922 404.987 61.5035C404.987 61.1147 404.674 60.7996 404.288 60.7996C403.902 60.7996 403.59 61.1147 403.59 61.5035C403.59 61.8922 403.902 62.2074 404.288 62.2074Z" fill="#FFEC00"/>
</g>
<g style="mix-blend-mode:multiply">
<path d="M414.455 67.7195C415.058 67.7195 415.547 67.2268 415.547 66.619C415.547 66.0112 415.058 65.5186 414.455 65.5186C413.852 65.5186 413.363 66.0112 413.363 66.619C413.363 67.2268 413.852 67.7195 414.455 67.7195Z" fill="#FFEC00"/>
</g>
<g style="mix-blend-mode:multiply">
<path d="M407.054 71.8205C407.858 71.8205 408.51 71.1636 408.51 70.3533C408.51 69.5429 407.858 68.886 407.054 68.886C406.249 68.886 405.597 69.5429 405.597 70.3533C405.597 71.1636 406.249 71.8205 407.054 71.8205Z" fill="#FFEC00"/>
</g>
<g style="mix-blend-mode:multiply">
<path d="M401.031 66.2787C401.346 66.2787 401.601 66.0212 401.601 65.7037C401.601 65.3861 401.346 65.1287 401.031 65.1287C400.715 65.1287 400.46 65.3861 400.46 65.7037C400.46 66.0212 400.715 66.2787 401.031 66.2787Z" fill="#FFEC00"/>
</g>
<g style="mix-blend-mode:multiply">
<path d="M412.152 76.1796C412.467 76.1796 412.723 75.9221 412.723 75.6046C412.723 75.287 412.467 75.0295 412.152 75.0295C411.837 75.0295 411.581 75.287 411.581 75.6046C411.581 75.9221 411.837 76.1796 412.152 76.1796Z" fill="#FFEC00"/>
</g>
<g style="mix-blend-mode:multiply">
<path d="M402.202 79.0148C402.901 79.0148 403.468 78.4437 403.468 77.7392C403.468 77.0347 402.901 76.4636 402.202 76.4636C401.503 76.4636 400.936 77.0347 400.936 77.7392C400.936 78.4437 401.503 79.0148 402.202 79.0148Z" fill="#FFEC00"/>
</g>
<g style="mix-blend-mode:multiply">
<path d="M408.261 85.2343C408.676 85.2343 409.013 84.8954 409.013 84.4775C409.013 84.0595 408.676 83.7207 408.261 83.7207C407.846 83.7207 407.51 84.0595 407.51 84.4775C407.51 84.8954 407.846 85.2343 408.261 85.2343Z" fill="#FFEC00"/>
</g>
<g style="mix-blend-mode:multiply">
<path d="M414.937 83.0302C415.562 83.0302 416.069 82.5198 416.069 81.8901C416.069 81.2604 415.562 80.75 414.937 80.75C414.312 80.75 413.805 81.2604 413.805 81.8901C413.805 82.5198 414.312 83.0302 414.937 83.0302Z" fill="#FFEC00"/>
</g>
<g style="mix-blend-mode:multiply">
<path d="M415.131 71.738C415.607 71.738 415.994 71.3489 415.994 70.8689C415.994 70.3889 415.607 69.9998 415.131 69.9998C414.654 69.9998 414.268 70.3889 414.268 70.8689C414.268 71.3489 414.654 71.738 415.131 71.738Z" fill="#FFEC00"/>
</g>
<g style="mix-blend-mode:multiply">
<path d="M411.142 62.0024C411.618 62.0024 412.004 61.6133 412.004 61.1333C412.004 60.6533 411.618 60.2642 411.142 60.2642C410.665 60.2642 410.279 60.6533 410.279 61.1333C410.279 61.6133 410.665 62.0024 411.142 62.0024Z" fill="#FFEC00"/>
</g>
<g style="mix-blend-mode:multiply">
<path d="M402.336 56.4309C402.813 56.4309 403.199 56.0418 403.199 55.5618C403.199 55.0818 402.813 54.6926 402.336 54.6926C401.86 54.6926 401.473 55.0818 401.473 55.5618C401.473 56.0418 401.86 56.4309 402.336 56.4309Z" fill="#FFEC00"/>
</g>
</g>
<path d="M404.265 0L449.945 8.70452L441.445 24.6463L406.401 17.9675L404.265 0Z" fill="#FFEC00"/>
<path d="M407.644 17.9643L406.24 9.03507L404.836 0.109131L405.932 9.08133L407.028 18.0502L407.644 17.9643Z" fill="#FFC600"/>
<path d="M408.697 18.1658L408.625 17.604L407.49 9.2861L407.454 9.01512L406.276 0.383301L407.195 9.30924L407.221 9.59674L408.11 18.2319L408.697 18.1658Z" fill="#FFC600"/>
<path d="M409.754 18.3675L409.701 17.8354L408.744 9.53738L408.711 9.2664L407.713 0.657715L408.455 9.53738L408.478 9.82159L409.196 18.4137L409.754 18.3675Z" fill="#FFC600"/>
<path d="M410.81 18.5656L410.777 18.0633L409.993 9.78842L409.967 9.51744L409.154 0.931885L409.718 9.76529L409.734 10.0495L410.282 18.5954L410.81 18.5656Z" fill="#FFC600"/>
<path d="M411.863 18.7674L411.854 18.2948L411.247 10.0397L411.227 9.76872L410.594 1.2063L410.981 9.99344L410.991 10.2743L411.368 18.7773L411.863 18.7674Z" fill="#FFC600"/>
<path d="M412.92 18.9688L412.93 18.5227L412.497 10.2907L412.483 10.0198L412.031 1.48047L412.241 10.2213L412.247 10.5022L412.451 18.9589L412.92 18.9688Z" fill="#FFC600"/>
<path d="M413.976 19.1705L414.006 18.7541L413.75 10.542L413.74 10.271L413.471 1.75488L413.504 10.4495V10.7304L413.537 19.1408L413.976 19.1705Z" fill="#FFC600"/>
<path d="M415.033 19.372L415.082 18.9854L415 10.7931V10.5221L414.908 2.02905L414.764 10.6774L414.76 10.9583L414.623 19.3224L415.033 19.372Z" fill="#FFC600"/>
<path d="M416.086 19.5737L416.158 19.2135L416.253 11.0443L416.256 10.7734L416.348 2.30347L416.027 10.9055L416.013 11.1831L415.705 19.5043L416.086 19.5737Z" fill="#FFC600"/>
<path d="M417.142 19.7752L417.234 19.4447L417.503 11.2954L417.513 11.0277L417.788 2.57764L417.29 11.1334L417.27 11.411L416.791 19.686L417.142 19.7752Z" fill="#FFC600"/>
<path d="M418.198 19.9736L418.31 19.6729L418.756 11.5467L418.769 11.279L419.225 2.85205L418.553 11.3616L418.527 11.6392L417.877 19.8678L418.198 19.9736Z" fill="#FFC600"/>
<path d="M419.252 20.1751L419.386 19.9041L420.006 11.7977L420.029 11.53L420.666 3.12622L419.813 11.5895L419.783 11.8638L418.963 20.0495L419.252 20.1751Z" fill="#FFC600"/>
<path d="M420.308 20.3768L420.462 20.1355L421.259 12.049L421.286 11.7813L422.106 3.40063L421.076 11.8176L421.039 12.0919L420.045 20.2314L420.308 20.3768Z" fill="#FFC600"/>
<path d="M421.364 20.5782L421.538 20.3634L422.509 12.3L422.542 12.0323L423.546 3.6748L422.339 12.0456L422.296 12.3198L421.131 20.413L421.364 20.5782Z" fill="#FFC600"/>
<path d="M422.421 20.7797L422.614 20.5946L423.762 12.5511L423.802 12.2834L424.983 3.94897L423.598 12.2735L423.553 12.5444L422.217 20.5946L422.421 20.7797Z" fill="#FFC600"/>
<path d="M423.474 20.9814L423.69 20.8261L425.012 12.799L425.058 12.5347L426.423 4.22339L424.861 12.5016L424.809 12.7726L423.3 20.7765L423.474 20.9814Z" fill="#FFC600"/>
<path d="M424.53 21.1796L424.766 21.054L426.266 13.0501L426.315 12.7857L427.863 4.49756L426.124 12.7295L426.062 13.0005L424.386 20.9582L424.53 21.1796Z" fill="#FFC600"/>
<path d="M425.586 21.3813L425.839 21.2854L427.516 13.3013L427.571 13.037L429.3 4.77197L427.384 12.9577L427.319 13.2253L425.472 21.14L425.586 21.3813Z" fill="#FFC600"/>
<path d="M426.639 21.5827L426.915 21.5134L428.765 13.5524L428.828 13.288L430.74 5.04614L428.647 13.1856L428.575 13.4532L426.554 21.3217L426.639 21.5827Z" fill="#FFC600"/>
<path d="M427.696 21.7843L427.991 21.7447L430.019 13.8036L430.088 13.5392L432.181 5.31714L429.91 13.4136L429.832 13.6813L427.64 21.5035L427.696 21.7843Z" fill="#FFC600"/>
<path d="M428.752 21.9859L429.067 21.976L431.269 14.0547L431.344 13.7903L433.618 5.59473L431.17 13.6416L431.088 13.906L428.726 21.6852L428.752 21.9859Z" fill="#FFC600"/>
<path d="M429.805 22.1875L430.143 22.204L432.522 14.3059L432.601 14.0448L435.058 5.86572L432.433 13.8697L432.345 14.134L429.812 21.867L429.805 22.1875Z" fill="#FFC600"/>
<path d="M430.862 22.3892L431.219 22.4355L433.772 14.5572L433.86 14.2961L436.495 6.14014L433.696 14.0978L433.601 14.3622L430.895 22.0489L430.862 22.3892Z" fill="#FFC600"/>
<path d="M431.918 22.5874L432.295 22.6634L435.025 14.8082L435.117 14.5471L437.935 6.41431L434.956 14.3257L434.854 14.5868L431.981 22.2305L431.918 22.5874Z" fill="#FFC600"/>
<path d="M432.971 22.7891L433.371 22.8949L436.275 15.0595L436.373 14.7984L439.375 6.68872L436.219 14.5539L436.111 14.8149L433.066 22.4124L432.971 22.7891Z" fill="#FFC600"/>
<path d="M434.028 22.9906L434.448 23.1261L437.528 15.3105L437.63 15.0494L440.812 6.96289L437.482 14.7818L437.367 15.0428L434.149 22.594L434.028 22.9906Z" fill="#FFC600"/>
<path d="M435.084 23.1923L435.524 23.3542L438.778 15.5618L438.89 15.3007L442.252 7.2373L438.742 15.0099L438.624 15.2677L435.235 22.7759L435.084 23.1923Z" fill="#FFC600"/>
<path d="M436.137 23.3938L436.6 23.5854L440.031 15.8128L440.146 15.5518L443.692 7.51147L440.005 15.2378L439.88 15.4956L436.321 22.9575L436.137 23.3938Z" fill="#FFC600"/>
<path d="M437.193 23.5955L437.676 23.8169L441.281 16.0641L441.402 15.803L445.129 7.78589L441.268 15.466L441.137 15.7237L437.407 23.1394L437.193 23.5955Z" fill="#FFC600"/>
<path d="M438.25 23.7936L438.752 24.0448L442.534 16.3151L442.659 16.0541L446.57 8.06006L442.528 15.6939L442.393 15.9483L438.489 23.3211L438.25 23.7936Z" fill="#FFC600"/>
<path d="M439.306 23.9953L439.828 24.2762L443.784 16.5664L443.919 16.3054L448.01 8.33447L443.791 15.922L443.646 16.1765L439.575 23.5029L439.306 23.9953Z" fill="#FFC600"/>
<path d="M440.904 24.5074L445.175 16.5564L449.447 8.60864L444.903 16.4044L440.359 24.1968L440.904 24.5074Z" fill="#FFC600"/>
<path d="M420.589 28.9311L401.269 131.832L404.95 132.533L424.271 29.6324L420.589 28.9311Z" fill="#D3D3D3"/>
<path d="M421.261 29.0578L401.941 131.959L402.863 132.134L422.183 29.2334L421.261 29.0578Z" fill="#E6E6EE"/>
<path d="M423.854 20.9417L424.13 20.9913L442.279 24.4513L442.174 25.0098C442.017 25.8451 441.579 26.6003 440.933 27.1477C440.288 27.6951 439.474 28.001 438.63 28.0137L429.287 27.1082C428.444 27.1224 427.631 27.4294 426.986 27.9773C426.341 28.5251 425.903 29.2804 425.747 30.1155L425.518 31.3217L422.303 30.707L422.027 30.6575L418.812 30.0428L419.042 28.8366C419.199 27.9993 419.064 27.133 418.66 26.3844C418.256 25.6358 417.607 25.0509 416.824 24.7289L407.799 22.1347C407.019 21.8112 406.373 21.2266 405.971 20.4796C405.569 19.7325 405.435 18.8687 405.591 18.0336L405.696 17.4751L423.854 20.9417Z" fill="#0075C5"/>
<g opacity="0.63">
<path d="M420.029 30.2774L420.413 28.2417C420.569 27.4066 420.435 26.5428 420.033 25.7957C419.631 25.0487 418.985 24.4641 418.205 24.1406L409.18 21.5464C408.442 21.2415 407.824 20.7024 407.418 20.0112C407.013 19.3199 406.842 18.5141 406.933 17.7163L408.11 17.941C408.209 18.5638 408.466 19.1505 408.854 19.6447C409.243 20.1389 409.752 20.5241 410.331 20.7632L419.356 23.3607C420.136 23.6836 420.782 24.2675 421.184 25.014C421.586 25.7605 421.72 26.6239 421.564 27.4585L421 30.4724L420.029 30.2774Z" fill="url(#paint1_linear_202_131)"/>
</g>
<path d="M404.981 134.018L408.045 117.699L403.78 116.886L400.713 133.205C400.646 133.757 400.791 134.313 401.116 134.762C401.442 135.211 401.925 135.518 402.467 135.621C403.01 135.725 403.571 135.616 404.037 135.319C404.503 135.021 404.839 134.556 404.977 134.018H404.981ZM403.947 133.79C403.905 134.007 403.799 134.207 403.644 134.365C403.489 134.522 403.292 134.63 403.076 134.674C402.86 134.718 402.637 134.697 402.433 134.614C402.229 134.53 402.054 134.388 401.93 134.205C401.807 134.022 401.74 133.805 401.737 133.584C401.735 133.362 401.798 133.145 401.919 132.959C402.039 132.774 402.211 132.628 402.413 132.54C402.615 132.453 402.839 132.428 403.055 132.468C403.346 132.523 403.604 132.693 403.771 132.94C403.939 133.186 404.002 133.49 403.947 133.783V133.79Z" fill="#EE0441"/>
<g style="mix-blend-mode:multiply">
<path d="M398.131 50.9151L397.55 83.9057C397.534 84.9819 397.942 86.0207 398.684 86.7953C399.425 87.5698 400.441 88.0172 401.51 88.0398L411.827 88.2249V69.5667C411.829 69.1318 411.764 68.6992 411.634 68.2845C411.363 67.4031 410.819 66.6323 410.082 66.0851C409.344 65.5379 408.452 65.2432 407.536 65.2442H407.123V60.3565H404.436V54.5502C404.436 54.5502 404.374 52.3493 406.434 52.4121C408.107 52.4617 409.039 52.2237 409.026 51.457C409.017 51.2429 408.962 51.0333 408.865 50.8424C408.583 50.2079 406.992 48.5621 405.384 46.9825L402.248 46.9263C401.718 46.9158 401.19 47.0107 400.696 47.2054C400.202 47.4002 399.751 47.6911 399.369 48.0615C398.987 48.4319 398.68 48.8746 398.468 49.3642C398.256 49.8538 398.141 50.3808 398.131 50.9151Z" fill="#E5E2D1"/>
</g>
<path d="M388.778 47.7327C388.778 47.7327 387.491 54.0512 385.736 55.9349C386.671 56.1001 387.377 55.9811 387.633 55.7928C387.888 55.6044 391.048 51.8767 391.281 48.4035C390.602 47.921 388.778 47.7327 388.778 47.7327Z" fill="#EE0441"/>
<path d="M388.777 47.7327C388.777 47.7327 388.777 47.7855 388.748 47.8748C389.297 47.9529 389.828 48.1321 390.313 48.4035C390.08 51.8767 386.921 55.6044 386.665 55.7928C386.482 55.901 386.278 55.9665 386.068 55.9844C386.835 56.0704 387.406 55.958 387.632 55.7928C387.859 55.6275 391.048 51.8767 391.281 48.4035C390.602 47.921 388.777 47.7327 388.777 47.7327Z" fill="#C90052"/>
<path d="M384.614 43.3276H383.194V46.0771H384.614V43.3276Z" fill="#C90052"/>
<path d="M386.717 47.0718H384.896C384.742 47.0718 384.593 47.0098 384.483 46.8995C384.374 46.7892 384.312 46.6396 384.312 46.4835V43.1128C384.312 42.9568 384.374 42.8071 384.483 42.6968C384.593 42.5865 384.742 42.5245 384.896 42.5245H386.72V47.0718H386.717Z" fill="#EE0441"/>
<path d="M400.995 60.2873V52.9806C400.995 52.9806 400.932 50.783 402.993 50.8458C405.053 50.9086 405.988 50.5319 405.427 49.2728C404.987 48.2814 401.382 44.8478 399.472 43.0336C398.762 42.3597 397.824 41.9839 396.848 41.9827H386.455V47.4519C386.455 47.4519 392.819 48.331 392.819 52.5411V60.2873H400.995Z" fill="#D3D3D3"/>
<path d="M398.718 60.2873V52.9806C398.718 52.9806 398.508 50.8458 402.983 50.8458C405.043 50.8458 405.978 50.5319 405.417 49.2728C404.977 48.2814 401.372 44.8478 399.463 43.0336C398.752 42.3597 397.814 41.9839 396.838 41.9827H386.455V47.4519C386.455 47.4519 392.819 48.331 392.819 52.5411V60.2873H398.718Z" fill="#E6E6EE"/>
<path d="M386.455 42.5212H395.313C395.791 42.5212 396.264 42.6234 396.701 42.821C397.138 43.0187 397.528 43.3073 397.845 43.668L399.728 45.7995C399.966 46.0708 400.103 46.4165 400.116 46.7779C400.129 47.1393 400.018 47.4942 399.801 47.7823V47.7823C399.574 48.0802 399.248 48.2861 398.883 48.3625C398.518 48.4389 398.138 48.3808 397.812 48.1987L395.844 47.1015C395.303 46.7982 394.695 46.6389 394.076 46.6389H386.455V42.5212Z" fill="#F2F2F2"/>
<path d="M389.791 63.6777H403.681V58.7901H389.791V63.6777Z" fill="#EE0441"/>
<path d="M398.003 63.6777H403.681V58.7901H398.003V63.6777Z" fill="#C90052"/>
<path d="M384.339 66.2653L379.267 76.0471C378.317 77.8841 377.819 79.9243 377.817 81.9956V108.506C377.817 108.993 377.912 109.475 378.097 109.925C378.282 110.374 378.553 110.783 378.895 111.128C379.237 111.472 379.642 111.745 380.089 111.931C380.536 112.118 381.014 112.214 381.498 112.214H404.721C405.698 112.214 406.634 111.823 407.325 111.128C408.016 110.432 408.405 109.489 408.406 108.506V68.0003C408.406 66.8539 407.953 65.7544 407.149 64.9438C406.344 64.1331 405.253 63.6777 404.114 63.6777H388.581C387.706 63.6781 386.849 63.9194 386.101 64.3755C385.354 64.8316 384.744 65.4851 384.339 66.2653V66.2653Z" fill="#E6E6EE"/>
<path d="M385.546 108.519V82.0088C385.549 79.9371 386.047 77.8967 386.999 76.0604L392.071 66.2785C392.473 65.4979 393.079 64.8429 393.824 64.3845C394.569 63.926 395.424 63.6816 396.297 63.6777H391.048C390.173 63.6781 389.316 63.9194 388.568 64.3755C387.821 64.8316 387.211 65.4851 386.806 66.2653L381.737 76.0471C380.785 77.8835 380.286 79.9239 380.284 81.9956V108.506C380.285 109.489 380.673 110.431 381.363 111.127C382.053 111.822 382.989 112.213 383.965 112.214H389.23C388.256 112.214 387.321 111.825 386.631 111.132C385.94 110.44 385.55 109.5 385.546 108.519V108.519Z" fill="#F2F2F2"/>
<path d="M404.115 63.6777H388.581C387.669 63.6786 386.776 63.9424 386.009 64.4378H399.928C400.492 64.4374 401.05 64.5489 401.571 64.766C402.092 64.983 402.565 65.3014 402.964 65.7029C403.362 66.1043 403.678 66.581 403.894 67.1057C404.109 67.6303 404.22 68.1926 404.219 68.7603V109.276C404.219 111.325 402.579 112.227 400.539 112.227H404.721C405.698 112.227 406.635 111.836 407.325 111.141C408.016 110.446 408.405 109.503 408.406 108.519V68.0003C408.406 66.8539 407.954 65.7544 407.149 64.9438C406.344 64.1331 405.253 63.6777 404.115 63.6777V63.6777Z" fill="#D3D3D3"/>
<path d="M404.17 87.9837C404.17 87.9837 414.406 75.9513 415.981 72.0122C417.556 68.073 418.569 64.6857 421.443 60.4458C424.317 56.2059 427.968 50.5152 429.382 50.469C430.796 50.4227 430.918 51.5694 430.34 52.6468C429.763 53.7241 426.233 59.5535 425.997 60.0525C425.76 60.5515 426.023 61.1133 426.725 60.1913C427.427 59.2693 432.873 51.2918 433.824 50.2542C434.776 49.2165 436.278 50.1385 435.645 51.4108C435.012 52.6831 430.186 59.8774 429.786 60.5185C429.386 61.1596 429.842 61.8404 430.412 61.0175C430.983 60.1946 436.544 52.3857 437.459 51.3216C438.375 50.2575 439.834 51.4372 439.333 52.5146C438.831 53.5919 432.968 61.7974 432.532 62.4286C432.095 63.0598 432.532 63.5092 433.093 62.8351C433.654 62.1609 438.434 55.3797 439.372 54.5932C440.31 53.8067 441.8 54.8675 440.838 56.4604C439.877 58.0532 433.368 67.2303 432.87 68.2019C432.371 69.1735 432.843 69.5832 434.395 67.9772C435.947 66.3711 437.157 64.5998 438.056 65.0228C438.955 65.4458 439.339 67.4319 435.396 71.3545C431.452 75.2772 428.916 76.5528 427.194 77.4979C425.472 78.4431 415.863 95.4093 415.863 95.4093C415.863 95.4093 409.748 94.2626 404.17 87.9837Z" fill="#0075C5"/>
<path opacity="0.63" d="M437.853 65.2839C437.853 65.2839 438.479 65.816 438.24 66.9693C438 68.1227 436.219 70.274 435.15 71.1894C434.08 72.1048 430.701 75.3698 428.506 76.457C426.469 77.4683 425.951 77.9111 424.76 79.7948C424.451 80.2773 415.055 95.8985 414.563 96.5594C414.655 95.8985 412.333 95.4622 412.556 94.9071C412.746 94.4378 421.453 78.42 424.399 76.4967C425.36 75.8688 427.62 74.732 429.228 73.886C432.44 72.194 435.478 69.5899 436.672 67.9376C437.866 66.2853 437.853 65.2839 437.853 65.2839Z" fill="url(#paint2_linear_202_131)"/>
<path opacity="0.39" d="M422.339 60.6079C422.339 60.6079 416.581 67.1875 418.796 70.9912C421.01 74.7949 423.848 75.4757 427.653 73.5589C435.491 64.6396 426.151 61.6191 422.339 60.6079Z" fill="url(#paint3_linear_202_131)"/>
<path opacity="0.49" d="M439.746 54.656C439.939 54.6266 440.137 54.6609 440.31 54.7538C440.482 54.8466 440.62 54.9932 440.704 55.1715C440.992 55.806 440.668 56.5331 439.975 57.3989C439.283 58.2647 436.18 62.5377 436.088 62.6864C438.473 58.9719 439.926 57.3328 440.087 56.4273C440.248 55.5218 439.736 55.3269 439.48 55.2938C439.224 55.2608 439.293 54.613 439.746 54.656Z" fill="url(#paint4_linear_202_131)"/>
<path opacity="0.49" d="M438.115 51.1003C438.309 51.0709 438.506 51.1052 438.679 51.1981C438.852 51.291 438.99 51.4375 439.073 51.6159C439.362 52.2504 439.037 52.9774 438.345 53.8465C437.653 54.7157 434.549 58.982 434.457 59.134C436.842 55.4196 438.296 53.7837 438.456 52.875C438.617 51.9662 438.105 51.7745 437.849 51.7415C437.594 51.7084 437.662 51.0574 438.115 51.1003Z" fill="url(#paint5_linear_202_131)"/>
<path opacity="0.49" d="M434.388 50.1021C434.582 50.0722 434.78 50.1062 434.953 50.1992C435.125 50.2921 435.263 50.439 435.346 50.6177C435.635 51.2489 435.31 51.9759 434.618 52.845C433.926 53.7142 430.822 57.9805 430.73 58.1325C433.116 54.4181 434.569 52.7822 434.73 51.8734C434.89 50.9647 434.379 50.773 434.123 50.7399C433.867 50.7069 433.936 50.0559 434.388 50.1021Z" fill="url(#paint6_linear_202_131)"/>
<path opacity="0.49" d="M429.28 50.793C429.474 50.7627 429.671 50.7966 429.843 50.8897C430.016 50.9827 430.153 51.1297 430.235 51.3085C430.527 51.9397 430.219 52.6007 429.625 53.6053C429.031 54.6099 426.033 59.1638 425.941 59.3125C428.326 55.5947 429.458 53.4665 429.618 52.561C429.779 51.6555 429.271 51.4606 429.011 51.4275C428.752 51.3945 428.828 50.7468 429.28 50.793Z" fill="url(#paint7_linear_202_131)"/>
<path d="M413.822 138.496H386.711C383.959 138.496 381.32 137.395 379.374 135.435C377.428 133.476 376.335 130.818 376.334 128.046L374.579 81.0142H425.954L424.182 128.046C424.182 130.815 423.091 133.471 421.149 135.431C419.206 137.39 416.571 138.492 413.822 138.496Z" fill="#EE0441"/>
<path d="M420.062 81.0142L418.339 127.118C418.339 129.89 417.246 132.549 415.3 134.509C413.354 136.469 410.715 137.57 407.963 137.57H382.439C383.78 138.18 385.233 138.495 386.704 138.496H413.815C416.566 138.494 419.202 137.392 421.146 135.433C423.09 133.473 424.182 130.817 424.182 128.046L425.941 81.0142H420.062Z" fill="#C90052"/>
<path d="M374.579 81.0142L376.104 121.843C383.83 131.328 399.249 128.552 399.249 128.552C406.903 126.9 409.455 121.678 409.455 115.908L410.768 81.0142H374.579Z" fill="#FF3C41"/>
<path d="M427.191 79.2429H373.598C373.078 79.2429 372.656 79.6676 372.656 80.1914V81.8338C372.656 82.3576 373.078 82.7822 373.598 82.7822H427.191C427.711 82.7822 428.132 82.3576 428.132 81.8338V80.1914C428.132 79.6676 427.711 79.2429 427.191 79.2429Z" fill="#FF5F6B"/>
<path d="M425.429 86.4504H375.1C374.269 86.4504 373.594 87.1296 373.594 87.9673C373.594 88.805 374.269 89.4841 375.1 89.4841H425.429C426.261 89.4841 426.935 88.805 426.935 87.9673C426.935 87.1296 426.261 86.4504 425.429 86.4504Z" fill="#FF5F6B"/>
<g style="mix-blend-mode:multiply">
<g style="mix-blend-mode:multiply">
<path d="M402.546 81.0142H400.982C400.033 83.5918 393.042 102.495 388.476 111.49C386.245 115.879 383.482 118.397 380.707 118.572C379.862 118.619 379.019 118.445 378.26 118.067C377.5 117.69 376.851 117.122 376.373 116.417C376.11 116.007 375.931 115.547 375.848 115.066L375.97 118.274C376.607 118.897 377.366 119.379 378.197 119.691C379.029 120.002 379.916 120.137 380.802 120.085C380.95 120.085 381.101 120.059 381.258 120.039C383.594 119.728 386.835 118.056 389.814 112.181C394.735 102.491 402.425 81.4471 402.504 81.2422C402.529 81.1687 402.543 81.0919 402.546 81.0142V81.0142Z" fill="#C9B1B6"/>
</g>
</g>
<path d="M402.202 80.1715C402.114 80.1258 402.017 80.098 401.918 80.0899C401.819 80.0818 401.72 80.0934 401.625 80.1241C401.531 80.1548 401.443 80.204 401.368 80.2688C401.292 80.3337 401.23 80.4129 401.185 80.5019C401.083 80.7002 390.759 100.456 384.667 109.332C381.882 113.39 378.814 115.522 376.039 115.323C375.193 115.258 374.379 114.973 373.675 114.497C372.971 114.021 372.401 113.37 372.02 112.607C370.754 110.085 373.116 104.606 375.281 100.627L375.163 97.7854C373.086 101.242 368.697 109.329 370.685 113.294C371.183 114.29 371.928 115.139 372.847 115.759C373.767 116.379 374.83 116.749 375.934 116.834C376.081 116.834 376.236 116.834 376.393 116.834C378.748 116.834 382.18 115.598 385.907 110.175C392.055 101.222 402.418 81.3876 402.52 81.186C402.61 81.0087 402.628 80.8028 402.568 80.6129C402.508 80.423 402.377 80.2644 402.202 80.1715Z" fill="#B5B5B5"/>
<g style="mix-blend-mode:multiply">
<path d="M381.288 100.33L382.019 99.6691C382.136 99.5679 382.229 99.4426 382.293 99.3018C382.357 99.1609 382.391 99.0078 382.391 98.8528C382.391 98.6978 382.357 98.5447 382.293 98.4038C382.229 98.263 382.136 98.1377 382.019 98.0365V98.0365C381.77 97.8193 381.451 97.6998 381.122 97.6998C380.792 97.6998 380.474 97.8193 380.225 98.0365L379.493 98.6975L379.037 98.2811L378.338 97.6499L376.019 99.7583L375.799 99.56L375.389 99.1866L375.261 99.3022L376.334 128.053C376.338 129.886 376.821 131.686 377.733 133.271C378.646 134.857 379.957 136.173 381.534 137.088C381.893 136.655 382.091 136.109 382.095 135.545V111.602C382.091 111.253 382.015 110.909 381.871 110.592C381.727 110.275 381.518 109.992 381.258 109.762C380.7 109.266 379.981 108.994 379.237 108.998H378.712C378.533 109 378.355 108.959 378.194 108.879C377.972 108.773 377.796 108.59 377.699 108.364C377.682 108.329 377.669 108.292 377.659 108.255C377.615 108.099 377.615 107.934 377.659 107.779C377.669 107.737 377.684 107.696 377.702 107.656L378.548 105.674L379.086 106.163L381.081 104.352L380.126 103.486L382.449 101.378L381.288 100.33Z" fill="#C9B1B6"/>
</g>
<path d="M359.166 106.477L371.193 96.936L375.822 101.82L374.838 104.372C374.771 104.546 374.747 104.735 374.768 104.921C374.79 105.107 374.856 105.285 374.961 105.439C375.066 105.594 375.206 105.72 375.371 105.808C375.535 105.895 375.718 105.941 375.904 105.941H376.462C376.859 105.941 377.252 106.02 377.619 106.173C377.986 106.326 378.32 106.551 378.601 106.834C378.882 107.117 379.104 107.453 379.256 107.822C379.408 108.192 379.487 108.588 379.487 108.988V137.078C379.487 137.886 379.168 138.661 378.601 139.232C378.033 139.804 377.264 140.125 376.462 140.125H360.866C360.063 140.125 359.294 139.804 358.727 139.232C358.16 138.661 357.841 137.886 357.841 137.078V108.998C357.84 108.501 357.961 108.011 358.192 107.571C358.423 107.132 358.758 106.756 359.166 106.477V106.477Z" fill="#0075C5"/>
<path d="M376.465 105.941H375.907C375.722 105.941 375.538 105.895 375.374 105.808C375.21 105.72 375.069 105.594 374.964 105.439C374.859 105.285 374.793 105.107 374.772 104.921C374.75 104.735 374.774 104.546 374.841 104.372L375.825 101.82L375.094 101.047L372.141 104.372C369.943 106.635 371.777 106.728 374.572 106.728H375.13C376.8 106.728 377.118 107.306 377.118 108.988V137.078C377.118 137.478 377.04 137.875 376.887 138.245C376.735 138.615 376.512 138.951 376.231 139.234C375.95 139.517 375.616 139.741 375.248 139.894C374.881 140.047 374.487 140.125 374.09 140.125H376.482C377.284 140.125 378.053 139.804 378.62 139.233C379.188 138.661 379.506 137.886 379.506 137.078V108.998C379.508 108.596 379.43 108.197 379.277 107.825C379.125 107.453 378.901 107.116 378.618 106.831C378.335 106.547 378 106.322 377.63 106.169C377.26 106.017 376.865 105.939 376.465 105.941V105.941Z" fill="#005ABC"/>
<path opacity="0.63" d="M365.514 136.381V108.783C365.515 108.295 365.635 107.814 365.864 107.384C366.093 106.953 366.423 106.586 366.827 106.315L375.907 99.2361L373.69 96.9229L361.663 106.302C361.26 106.573 360.929 106.94 360.7 107.371C360.471 107.801 360.351 108.282 360.351 108.77V136.367C360.354 136.765 360.435 137.157 360.589 137.523C360.743 137.888 360.967 138.22 361.248 138.498C361.53 138.776 361.862 138.996 362.228 139.145C362.593 139.294 362.984 139.368 363.379 139.365H368.542C367.749 139.372 366.984 139.062 366.417 138.503C365.849 137.943 365.525 137.18 365.514 136.381V136.381Z" fill="url(#paint8_linear_202_131)"/>
<path d="M378.327 96.0935L376.429 94.182L377.515 93.0884C377.767 92.835 378.108 92.6926 378.464 92.6926C378.82 92.6926 379.161 92.835 379.413 93.0884V93.0884C379.664 93.3419 379.806 93.6857 379.806 94.0442C379.806 94.4026 379.664 94.7464 379.413 94.9999L378.327 96.0935Z" fill="#FFEC00"/>
<path d="M372.809 95.3776L377.142 99.7427L379.859 97.0063L375.525 92.6413L372.809 95.3776Z" fill="url(#paint9_linear_202_131)"/>
<path d="M373.546 96.1207L375.486 98.0742L378.202 95.3379L376.263 93.3843L373.546 96.1207Z" fill="#FFEC00"/>
<path d="M370.3 96.5668L376.306 102.617L378.413 100.495L372.407 94.445L370.3 96.5668Z" fill="#EF9300"/>
<path d="M370.736 97.0047L372.627 98.9092L374.733 96.7874L372.843 94.8829L370.736 97.0047Z" fill="url(#paint10_linear_202_131)"/>
<path d="M429.244 87.4946H433.985C434.297 87.4946 434.597 87.6196 434.818 87.8421C435.039 88.0646 435.163 88.3664 435.163 88.681V93.8528H428.08V88.6777C428.081 88.3659 428.203 88.067 428.421 87.8456C428.639 87.6242 428.935 87.4981 429.244 87.4946V87.4946Z" fill="#FF3C41"/>
<path d="M431.587 87.4915H429.241C429.087 87.4915 428.934 87.5222 428.791 87.5818C428.648 87.6415 428.519 87.7289 428.409 87.8391C428.3 87.9493 428.214 88.0802 428.155 88.2241C428.096 88.368 428.066 88.5222 428.067 88.6778V93.8463H430.416V88.6778C430.416 88.3643 430.539 88.0636 430.758 87.8413C430.978 87.619 431.276 87.4932 431.587 87.4915V87.4915Z" fill="#FF5F6B"/>
<path d="M423.11 100.988V133.522C423.107 134.174 423.233 134.821 423.48 135.424C423.726 136.027 424.088 136.576 424.545 137.038C425.002 137.5 425.546 137.867 426.144 138.117C426.742 138.367 427.383 138.496 428.031 138.496H442.587C443.896 138.496 445.152 137.972 446.078 137.039C447.004 136.106 447.524 134.841 447.524 133.522V116.097C447.524 113.413 447.524 110.565 446.57 108.129L443.673 100.988C442.456 98.0497 438.122 96.0305 435.396 96.0305H428.044C427.396 96.0288 426.755 96.1557 426.157 96.4041C425.558 96.6524 425.014 97.0172 424.556 97.4777C424.097 97.9382 423.734 98.4852 423.485 99.0875C423.237 99.6898 423.11 100.335 423.11 100.988V100.988ZM439.962 114.867C439.962 114.166 440.239 113.494 440.731 112.998C441.223 112.502 441.891 112.223 442.587 112.223C443.283 112.223 443.951 112.502 444.443 112.998C444.935 113.494 445.211 114.166 445.211 114.867V127.67C445.211 128.371 444.935 129.043 444.443 129.539C443.951 130.035 443.283 130.313 442.587 130.313C441.891 130.313 441.223 130.035 440.731 129.539C440.239 129.043 439.962 128.371 439.962 127.67V114.867Z" fill="#EDA900"/>
<path d="M442.6 130.32C440.402 130.32 439.126 128.836 439.126 127.369V114.57C439.126 113.869 439.402 113.196 439.894 112.7C440.387 112.205 441.054 111.926 441.75 111.926C442.4 111.94 443.037 112.112 443.607 112.428C443.284 112.293 442.937 112.223 442.587 112.223V112.223C441.891 112.223 441.223 112.502 440.731 112.998C440.239 113.494 439.962 114.166 439.962 114.867V127.67C439.961 128.018 440.029 128.364 440.161 128.686C440.294 129.009 440.488 129.302 440.733 129.548C440.979 129.794 441.27 129.989 441.59 130.122C441.91 130.254 442.254 130.322 442.6 130.32V130.32Z" fill="#EF9300"/>
<path d="M445.612 129.983L443.167 130.257C443.58 130.165 443.964 129.974 444.288 129.702C444.612 129.429 444.867 129.083 445.031 128.691C445.713 129.487 446.586 129.983 445.612 129.983Z" fill="#EDA900"/>
<path d="M428.044 96.0174H435.409C437.275 95.9564 439.094 96.608 440.504 97.8415C441.704 98.899 443.518 100.869 443.518 102.468V105.624C443.519 105.935 443.458 106.244 443.34 106.532C443.222 106.82 443.049 107.081 442.831 107.302C442.612 107.522 442.353 107.697 442.067 107.816C441.782 107.935 441.475 107.997 441.166 107.997V107.997C440.296 107.997 439.462 108.345 438.846 108.965C438.231 109.584 437.886 110.425 437.886 111.301V138.473H428.044C427.396 138.473 426.755 138.344 426.157 138.094C425.558 137.843 425.015 137.477 424.558 137.015C424.101 136.553 423.739 136.004 423.492 135.401C423.246 134.798 423.12 134.151 423.123 133.499V100.988C423.121 100.336 423.247 99.6895 423.493 99.0866C423.74 98.4836 424.102 97.9356 424.559 97.4739C425.016 97.0122 425.559 96.6459 426.157 96.3959C426.755 96.146 427.396 96.0173 428.044 96.0174V96.0174Z" fill="#FFC600"/>
<path opacity="0.63" d="M429.553 96.9427H434.68C436.321 96.9427 437.305 97.6664 438.122 98.8726C438.21 99.0048 438.289 99.1436 438.368 99.2791C438.116 99.2381 437.862 99.2182 437.607 99.2196H430.931C430.032 99.2196 429.17 99.5792 428.534 100.219C427.899 100.86 427.542 101.728 427.542 102.633V137.088C427.543 137.339 427.572 137.59 427.627 137.835C425.855 137.078 424.615 136.513 424.615 134.464V101.916C424.613 101.262 424.739 100.615 424.987 100.01C425.234 99.4059 425.598 98.8568 426.057 98.3945C426.515 97.9322 427.061 97.566 427.661 97.3168C428.261 97.0676 428.904 96.9405 429.553 96.9427Z" fill="url(#paint11_linear_202_131)"/>
<path d="M436.032 93.1094H427.256V96.0241H436.032V93.1094Z" fill="#C90052"/>
<g style="mix-blend-mode:multiply">
<path d="M414.216 134.176L392.232 79.2527H388.193L410.741 135.591L414.216 134.176Z" fill="#C9B1B6"/>
</g>
<path d="M362.59 16.2683L359.212 17.9014L414.548 134.033L417.925 132.4L362.59 16.2683Z" fill="#D3D3D3"/>
<path d="M361.979 16.5627L361.134 16.9717L416.469 133.104L417.315 132.695L361.979 16.5627Z" fill="#E6E6EE"/>
<path d="M358.313 16.7185L365.459 31.6886L369.395 29.7885L362.234 14.815C361.984 14.2891 361.537 13.8847 360.991 13.6907C360.446 13.4967 359.846 13.5291 359.324 13.7806C358.802 14.0321 358.4 14.4823 358.208 15.032C358.015 15.5817 358.047 16.186 358.297 16.7118L358.313 16.7185ZM359.297 16.2855C359.198 16.0859 359.16 15.8609 359.188 15.6393C359.216 15.4177 359.309 15.2096 359.455 15.0415C359.601 14.8735 359.794 14.7531 360.008 14.6957C360.222 14.6384 360.449 14.6467 360.658 14.7196C360.868 14.7924 361.051 14.9266 361.185 15.1049C361.318 15.2833 361.396 15.4976 361.408 15.7207C361.42 15.9437 361.366 16.1653 361.252 16.3572C361.139 16.549 360.971 16.7024 360.77 16.7978C360.639 16.8627 360.497 16.901 360.351 16.9105C360.205 16.9199 360.059 16.9002 359.92 16.8527C359.782 16.8051 359.654 16.7305 359.545 16.6332C359.435 16.5359 359.345 16.4178 359.281 16.2855H359.297Z" fill="#EE0441"/>
<path d="M423.526 135.707L419.918 132.131C419.659 131.876 419.35 131.678 419.011 131.548C418.672 131.419 418.311 131.362 417.949 131.381L413.514 131.582C413.174 131.596 412.845 131.698 412.557 131.88C412.269 132.061 412.033 132.315 411.873 132.617L409.705 136.685L423.526 135.707Z" fill="#0041A0"/>
<path d="M395.329 146.592L438.542 144.705L438.214 136.599C438.201 136.312 438.076 136.041 437.865 135.847C437.655 135.652 437.377 135.55 437.092 135.561L396.412 137.339C396.028 137.356 395.666 137.526 395.406 137.811C395.146 138.096 395.009 138.473 395.024 138.859L395.329 146.592Z" fill="#5A595A"/>
<path d="M395.03 139.507L438.24 137.62L438.178 136.106C438.161 135.728 437.997 135.372 437.72 135.116C437.443 134.86 437.077 134.725 436.701 134.742L396.32 136.506C395.944 136.523 395.591 136.688 395.336 136.967C395.082 137.246 394.949 137.615 394.965 137.993L395.03 139.507Z" fill="#005ABC"/>
<path d="M395.336 146.587L438.548 144.701L438.473 142.958L395.261 144.843L395.336 146.587Z" fill="#353535"/>
<g style="mix-blend-mode:multiply">
<path d="M407.53 86.4503C406.874 84.798 406.526 81.7279 407.333 80.5019C408.14 79.2759 409.301 79.2362 409.301 79.2362C409.301 79.2362 407.73 77.6466 401.31 78.0597C396.612 78.3605 394.866 80.2045 394.834 81.0339C394.816 82.0619 394.706 83.0861 394.505 84.0941C393.521 88.2117 392.363 91.5626 392.245 96.6849C392.127 101.807 391.786 108.582 392.901 109.454C394.017 110.327 394.788 109.454 394.945 108.248C395.103 107.042 395.601 100.224 395.706 99.6822C395.811 99.1403 396.346 98.8329 396.379 100.013C396.412 101.192 396.215 110.852 396.379 112.24C396.543 113.628 398.304 113.777 398.531 112.369C398.757 110.961 399.007 102.286 399.052 101.53C399.098 100.773 399.869 100.482 399.85 101.493C399.83 102.504 399.823 112.111 399.951 113.512C400.079 114.914 401.946 114.814 402.163 113.645C402.379 112.475 402.376 102.366 402.379 101.606C402.382 100.845 403.035 100.736 403.071 101.606C403.107 102.475 403.071 110.799 403.399 111.989C403.727 113.179 405.528 113.195 405.67 111.328C405.811 109.461 405.857 98.1984 405.998 97.1178C406.139 96.0372 406.775 95.981 407.106 98.1984C407.438 100.416 407.392 102.564 408.363 102.749C409.334 102.934 410.804 101.546 409.875 96.0438C408.947 90.5415 408.261 88.2877 407.53 86.4503Z" fill="#C9B1B6"/>
</g>
<path d="M406.467 84.9864C406.224 84.4147 406.089 81.2554 406.874 80.1384C407.605 79.0941 409.285 79.2429 409.285 79.2429C409.285 79.2429 407.805 76.4735 401.372 76.5991C396.664 76.6817 394.837 78.4398 394.768 79.2429C394.702 80.2684 394.545 81.286 394.299 82.2832C393.111 86.3512 391.815 89.646 391.468 94.7583C391.12 99.8707 390.464 106.622 391.546 107.544C392.629 108.466 393.429 107.64 393.639 106.434C393.849 105.228 394.673 98.4496 394.794 97.911C394.916 97.3723 395.47 97.0947 395.45 98.258C395.431 99.4212 394.794 109.077 394.896 110.485C394.998 111.893 396.749 112.108 397.038 110.713C397.327 109.319 397.973 100.664 398.052 99.9103C398.131 99.1568 398.918 98.8991 398.852 99.9103C398.787 100.922 398.344 110.515 398.403 111.92C398.462 113.324 400.338 113.314 400.607 112.157C400.877 111.001 401.336 100.898 401.375 100.138C401.415 99.3783 402.051 99.2989 402.064 100.171C402.077 101.044 401.661 109.355 401.913 110.558C402.166 111.761 403.987 111.86 404.21 110.009C404.433 108.159 404.994 96.9031 405.194 95.8224C405.394 94.7418 406.027 94.7253 406.254 96.9526C406.48 99.18 406.339 101.328 407.303 101.559C408.268 101.791 409.797 100.469 409.118 94.9302C408.438 89.3915 407.251 86.8073 406.467 84.9864Z" fill="#0075C5"/>
<path opacity="0.63" d="M407.317 101.229C407.317 101.229 408.137 101.206 408.662 100.152C409.187 99.0975 409.114 96.2885 408.835 94.9071C408.557 93.5258 407.641 89.1173 406.592 86.8933C405.607 84.8279 405.309 83.9521 405.535 81.7281C405.555 81.5397 406.119 76.9892 408.77 78.6184C408.013 77.9452 407.116 77.4517 406.145 77.1742C405.489 76.9627 404.485 77.204 403.875 78.3408C402.891 80.1584 403.298 82.8616 403.688 84.0248C404.056 85.1187 405.128 87.422 405.866 89.0909C407.343 92.4253 408.127 96.3612 408.035 98.4134C407.943 100.466 407.317 101.229 407.317 101.229Z" fill="url(#paint12_linear_202_131)"/>
<path opacity="0.49" d="M402.255 110.746C402.388 110.89 402.565 110.987 402.757 111.022C402.95 111.057 403.149 111.029 403.324 110.941C403.941 110.627 404.134 109.851 404.124 108.737C404.115 107.623 404.311 102.339 404.331 102.164C403.911 106.569 404.042 108.773 403.609 109.573C403.176 110.373 402.658 110.218 402.435 110.082C402.212 109.947 401.874 110.498 402.255 110.746Z" fill="url(#paint13_linear_202_131)"/>
<path opacity="0.49" d="M398.787 112.514C398.92 112.659 399.096 112.756 399.289 112.791C399.482 112.827 399.681 112.798 399.856 112.709C400.473 112.379 400.663 111.622 400.657 110.508C400.65 109.395 400.844 104.107 400.86 103.932C400.443 108.337 400.575 110.541 400.142 111.341C399.709 112.141 399.19 112.002 398.967 111.853C398.744 111.705 398.403 112.267 398.787 112.514Z" fill="url(#paint14_linear_202_131)"/>
<path opacity="0.49" d="M395.247 110.981C395.381 111.125 395.557 111.221 395.75 111.256C395.942 111.292 396.141 111.263 396.316 111.176C396.933 110.845 397.127 110.085 397.117 108.972C397.107 107.858 397.304 102.571 397.32 102.399C396.904 106.804 397.035 109.008 396.602 109.808C396.169 110.608 395.65 110.452 395.427 110.317C395.204 110.181 394.866 110.723 395.247 110.981Z" fill="url(#paint15_linear_202_131)"/>
<path opacity="0.49" d="M391.668 107.237C391.801 107.381 391.977 107.477 392.169 107.512C392.361 107.546 392.559 107.517 392.734 107.428C393.351 107.114 393.515 106.404 393.669 105.244C393.816 104.14 394.279 98.6346 394.295 98.4661C393.879 102.871 393.452 105.251 393.023 106.067C392.593 106.883 392.068 106.711 391.848 106.579C391.628 106.447 391.284 106.989 391.668 107.237Z" fill="url(#paint16_linear_202_131)"/>
<path d="M8.01421 140V73.8182H31.152C35.7623 73.8182 39.5648 74.6153 42.5593 76.2095C45.5539 77.7822 47.7836 79.9042 49.2486 82.5756C50.7135 85.2255 51.446 88.1662 51.446 91.3977C51.446 94.2415 50.9398 96.5897 49.9272 98.4425C48.9362 100.295 47.622 101.76 45.9847 102.837C44.369 103.915 42.6132 104.712 40.7173 105.229V105.875C42.7424 106.004 44.7783 106.715 46.8249 108.008C48.8716 109.3 50.5843 111.153 51.9631 113.566C53.3419 115.979 54.0312 118.93 54.0312 122.42C54.0312 125.738 53.2772 128.722 51.7692 131.372C50.2611 134.022 47.8806 136.122 44.6275 137.673C41.3744 139.224 37.1411 140 31.9276 140H8.01421ZM16.0284 132.891H31.9276C37.1626 132.891 40.8789 131.878 43.0764 129.853C45.2953 127.806 46.4048 125.329 46.4048 122.42C46.4048 120.18 45.8339 118.112 44.6921 116.216C43.5503 114.299 41.9238 112.769 39.8125 111.627C37.7012 110.464 35.2022 109.882 32.3153 109.882H16.0284V132.891ZM16.0284 102.902H30.8935C33.3063 102.902 35.4822 102.428 37.4212 101.48C39.3816 100.532 40.9328 99.1965 42.0746 97.473C43.2379 95.7495 43.8196 93.7244 43.8196 91.3977C43.8196 88.4893 42.8071 86.0226 40.782 83.9975C38.7569 81.9509 35.5469 80.9276 31.152 80.9276H16.0284V102.902ZM67.1998 140V73.8182H107.142V80.9276H75.214V103.29H105.073V110.399H75.214V132.891H107.659V140H67.1998ZM121.586 140V73.8182H143.949C149.119 73.8182 153.363 74.7015 156.681 76.468C159.999 78.2131 162.455 80.6152 164.049 83.6744C165.643 86.7335 166.44 90.2128 166.44 94.1122C166.44 98.0116 165.643 101.469 164.049 104.485C162.455 107.502 160.009 109.871 156.713 111.595C153.417 113.297 149.205 114.148 144.078 114.148H125.981V106.909H143.819C147.353 106.909 150.196 106.392 152.351 105.358C154.527 104.324 156.099 102.859 157.069 100.963C158.06 99.0457 158.555 96.7621 158.555 94.1122C158.555 91.4624 158.06 89.1464 157.069 87.1644C156.078 85.1824 154.494 83.6528 152.318 82.5756C150.142 81.4769 147.266 80.9276 143.69 80.9276H129.601V140H121.586ZM152.738 110.27L169.025 140H159.719L143.69 110.27H152.738ZM215.988 90.3636C215.6 87.089 214.027 84.5469 211.27 82.7372C208.512 80.9276 205.13 80.0227 201.123 80.0227C198.193 80.0227 195.629 80.4967 193.432 81.4446C191.256 82.3925 189.554 83.6959 188.326 85.3548C187.119 87.0136 186.516 88.8987 186.516 91.0099C186.516 92.7765 186.936 94.2953 187.776 95.5664C188.638 96.8159 189.737 97.8608 191.073 98.701C192.408 99.5196 193.809 100.198 195.274 100.737C196.738 101.254 198.085 101.674 199.313 101.997L206.035 103.807C207.758 104.259 209.675 104.884 211.787 105.681C213.919 106.478 215.955 107.566 217.894 108.945C219.855 110.302 221.47 112.047 222.742 114.18C224.013 116.313 224.648 118.93 224.648 122.033C224.648 125.609 223.711 128.84 221.837 131.727C219.984 134.614 217.27 136.908 213.693 138.61C210.139 140.312 205.819 141.163 200.735 141.163C195.995 141.163 191.891 140.399 188.423 138.869C184.976 137.339 182.261 135.207 180.279 132.471C178.319 129.734 177.209 126.557 176.951 122.938H185.223C185.439 125.437 186.279 127.505 187.744 129.142C189.231 130.758 191.105 131.964 193.367 132.761C195.651 133.537 198.107 133.925 200.735 133.925C203.794 133.925 206.541 133.429 208.975 132.438C211.41 131.426 213.338 130.025 214.76 128.237C216.182 126.428 216.892 124.316 216.892 121.903C216.892 119.706 216.278 117.918 215.051 116.539C213.823 115.16 212.207 114.04 210.203 113.178C208.2 112.317 206.035 111.562 203.708 110.916L195.564 108.589C190.394 107.103 186.301 104.981 183.285 102.223C180.268 99.4658 178.76 95.8572 178.76 91.3977C178.76 87.6922 179.762 84.4607 181.766 81.7031C183.791 78.924 186.505 76.7696 189.909 75.2401C193.335 73.6889 197.159 72.9133 201.381 72.9133C205.647 72.9133 209.438 73.6781 212.756 75.2077C216.074 76.7158 218.702 78.784 220.641 81.4123C222.602 84.0406 223.636 87.0244 223.743 90.3636H215.988ZM245.839 73.8182V140H237.825V73.8182H245.839ZM261.908 140V73.8182H269.922V103.29H305.21V73.8182H313.225V140H305.21V110.399H269.922V140H261.908ZM333.793 140.517C332.199 140.517 330.831 139.946 329.689 138.804C328.547 137.663 327.976 136.295 327.976 134.7C327.976 133.106 328.547 131.738 329.689 130.596C330.831 129.454 332.199 128.884 333.793 128.884C335.387 128.884 336.755 129.454 337.897 130.596C339.039 131.738 339.61 133.106 339.61 134.7C339.61 135.756 339.341 136.725 338.802 137.609C338.285 138.492 337.585 139.203 336.702 139.741C335.84 140.259 334.87 140.517 333.793 140.517ZM509.185 73.8182V140H501.429L465.365 88.0369H464.719V140H456.705V73.8182H464.46L500.653 125.911H501.3V73.8182H509.185Z" fill="#006F7E"/>
<defs>
<linearGradient id="paint0_linear_202_131" x1="393.598" y1="81.4744" x2="422.365" y2="53.9022" gradientUnits="userSpaceOnUse">
<stop stop-color="#FFC300"/>
<stop offset="1" stop-color="#FFE331"/>
</linearGradient>
<linearGradient id="paint1_linear_202_131" x1="415.186" y1="19.9067" x2="413.295" y2="29.5914" gradientUnits="userSpaceOnUse">
<stop stop-color="white" stop-opacity="0.1"/>
<stop offset="0.13" stop-color="white" stop-opacity="0.12"/>
<stop offset="0.26" stop-color="white" stop-opacity="0.16"/>
<stop offset="0.4" stop-color="white" stop-opacity="0.24"/>
<stop offset="0.53" stop-color="white" stop-opacity="0.35"/>
<stop offset="0.66" stop-color="white" stop-opacity="0.5"/>
<stop offset="0.8" stop-color="white" stop-opacity="0.67"/>
<stop offset="0.93" stop-color="white" stop-opacity="0.88"/>
<stop offset="1" stop-color="white"/>
</linearGradient>
<linearGradient id="paint2_linear_202_131" x1="419.454" y1="74.925" x2="428.339" y2="82.9509" gradientUnits="userSpaceOnUse">
<stop stop-color="white" stop-opacity="0.1"/>
<stop offset="0.13" stop-color="white" stop-opacity="0.12"/>
<stop offset="0.26" stop-color="white" stop-opacity="0.16"/>
<stop offset="0.4" stop-color="white" stop-opacity="0.24"/>
<stop offset="0.53" stop-color="white" stop-opacity="0.35"/>
<stop offset="0.66" stop-color="white" stop-opacity="0.5"/>
<stop offset="0.8" stop-color="white" stop-opacity="0.67"/>
<stop offset="0.93" stop-color="white" stop-opacity="0.88"/>
<stop offset="1" stop-color="white"/>
</linearGradient>
<linearGradient id="paint3_linear_202_131" x1="415.627" y1="70.8796" x2="432.091" y2="64.3516" gradientUnits="userSpaceOnUse">
<stop stop-color="white"/>
<stop offset="0.12" stop-color="white" stop-opacity="0.78"/>
<stop offset="0.24" stop-color="white" stop-opacity="0.57"/>
<stop offset="0.37" stop-color="white" stop-opacity="0.4"/>
<stop offset="0.5" stop-color="white" stop-opacity="0.25"/>
<stop offset="0.62" stop-color="white" stop-opacity="0.14"/>
<stop offset="0.75" stop-color="white" stop-opacity="0.06"/>
<stop offset="0.88" stop-color="white" stop-opacity="0.02"/>
<stop offset="1" stop-color="white" stop-opacity="0"/>
</linearGradient>
<linearGradient id="paint4_linear_202_131" x1="435.415" y1="56.144" x2="439.403" y2="59.7464" gradientUnits="userSpaceOnUse">
<stop stop-color="white" stop-opacity="0.1"/>
<stop offset="0.13" stop-color="white" stop-opacity="0.12"/>
<stop offset="0.26" stop-color="white" stop-opacity="0.16"/>
<stop offset="0.4" stop-color="white" stop-opacity="0.24"/>
<stop offset="0.53" stop-color="white" stop-opacity="0.35"/>
<stop offset="0.66" stop-color="white" stop-opacity="0.5"/>
<stop offset="0.8" stop-color="white" stop-opacity="0.67"/>
<stop offset="0.93" stop-color="white" stop-opacity="0.88"/>
<stop offset="1" stop-color="white"/>
</linearGradient>
<linearGradient id="paint5_linear_202_131" x1="433.783" y1="52.5888" x2="437.775" y2="56.193" gradientUnits="userSpaceOnUse">
<stop stop-color="white" stop-opacity="0.1"/>
<stop offset="0.13" stop-color="white" stop-opacity="0.12"/>
<stop offset="0.26" stop-color="white" stop-opacity="0.16"/>
<stop offset="0.4" stop-color="white" stop-opacity="0.24"/>
<stop offset="0.53" stop-color="white" stop-opacity="0.35"/>
<stop offset="0.66" stop-color="white" stop-opacity="0.5"/>
<stop offset="0.8" stop-color="white" stop-opacity="0.67"/>
<stop offset="0.93" stop-color="white" stop-opacity="0.88"/>
<stop offset="1" stop-color="white"/>
</linearGradient>
<linearGradient id="paint6_linear_202_131" x1="430.058" y1="51.5863" x2="434.045" y2="55.1915" gradientUnits="userSpaceOnUse">
<stop stop-color="white" stop-opacity="0.1"/>
<stop offset="0.13" stop-color="white" stop-opacity="0.12"/>
<stop offset="0.26" stop-color="white" stop-opacity="0.16"/>
<stop offset="0.4" stop-color="white" stop-opacity="0.24"/>
<stop offset="0.53" stop-color="white" stop-opacity="0.35"/>
<stop offset="0.66" stop-color="white" stop-opacity="0.5"/>
<stop offset="0.8" stop-color="white" stop-opacity="0.67"/>
<stop offset="0.93" stop-color="white" stop-opacity="0.88"/>
<stop offset="1" stop-color="white"/>
</linearGradient>
<linearGradient id="paint7_linear_202_131" x1="424.59" y1="52.0512" x2="429.384" y2="56.3835" gradientUnits="userSpaceOnUse">
<stop stop-color="white" stop-opacity="0.1"/>
<stop offset="0.13" stop-color="white" stop-opacity="0.12"/>
<stop offset="0.26" stop-color="white" stop-opacity="0.16"/>
<stop offset="0.4" stop-color="white" stop-opacity="0.24"/>
<stop offset="0.53" stop-color="white" stop-opacity="0.35"/>
<stop offset="0.66" stop-color="white" stop-opacity="0.5"/>
<stop offset="0.8" stop-color="white" stop-opacity="0.67"/>
<stop offset="0.93" stop-color="white" stop-opacity="0.88"/>
<stop offset="1" stop-color="white"/>
</linearGradient>
<linearGradient id="paint8_linear_202_131" x1="357.519" y1="99.4807" x2="381.437" y2="141.078" gradientUnits="userSpaceOnUse">
<stop stop-color="white"/>
<stop offset="0.07" stop-color="white" stop-opacity="0.88"/>
<stop offset="0.2" stop-color="white" stop-opacity="0.67"/>
<stop offset="0.34" stop-color="white" stop-opacity="0.5"/>
<stop offset="0.47" stop-color="white" stop-opacity="0.35"/>
<stop offset="0.6" stop-color="white" stop-opacity="0.24"/>
<stop offset="0.74" stop-color="white" stop-opacity="0.16"/>
<stop offset="0.87" stop-color="white" stop-opacity="0.12"/>
<stop offset="1" stop-color="white" stop-opacity="0.1"/>
</linearGradient>
<linearGradient id="paint9_linear_202_131" x1="372.812" y1="96.1927" x2="379.859" y2="96.1927" gradientUnits="userSpaceOnUse">
<stop stop-color="#FFE331"/>
<stop offset="1" stop-color="#FFC300"/>
</linearGradient>
<linearGradient id="paint10_linear_202_131" x1="370.732" y1="96.8973" x2="374.731" y2="96.8973" gradientUnits="userSpaceOnUse">
<stop stop-color="#FFE331"/>
<stop offset="1" stop-color="#FFC300"/>
</linearGradient>
<linearGradient id="paint11_linear_202_131" x1="438.378" y1="117.382" x2="424.615" y2="117.382" gradientUnits="userSpaceOnUse">
<stop stop-color="white" stop-opacity="0.1"/>
<stop offset="0.13" stop-color="white" stop-opacity="0.12"/>
<stop offset="0.26" stop-color="white" stop-opacity="0.16"/>
<stop offset="0.4" stop-color="white" stop-opacity="0.24"/>
<stop offset="0.53" stop-color="white" stop-opacity="0.35"/>
<stop offset="0.66" stop-color="white" stop-opacity="0.5"/>
<stop offset="0.8" stop-color="white" stop-opacity="0.67"/>
<stop offset="0.93" stop-color="white" stop-opacity="0.88"/>
<stop offset="1" stop-color="white"/>
</linearGradient>
<linearGradient id="paint12_linear_202_131" x1="393.203" y1="86.7875" x2="415.754" y2="90.7463" gradientUnits="userSpaceOnUse">
<stop stop-color="white" stop-opacity="0.1"/>
<stop offset="0.13" stop-color="white" stop-opacity="0.12"/>
<stop offset="0.26" stop-color="white" stop-opacity="0.16"/>
<stop offset="0.4" stop-color="white" stop-opacity="0.24"/>
<stop offset="0.53" stop-color="white" stop-opacity="0.35"/>
<stop offset="0.66" stop-color="white" stop-opacity="0.5"/>
<stop offset="0.8" stop-color="white" stop-opacity="0.67"/>
<stop offset="0.93" stop-color="white" stop-opacity="0.88"/>
<stop offset="1" stop-color="white"/>
</linearGradient>
<linearGradient id="paint13_linear_202_131" x1="399.451" y1="107.316" x2="404.78" y2="106.973" gradientUnits="userSpaceOnUse">
<stop stop-color="white" stop-opacity="0.1"/>
<stop offset="0.13" stop-color="white" stop-opacity="0.12"/>
<stop offset="0.26" stop-color="white" stop-opacity="0.16"/>
<stop offset="0.4" stop-color="white" stop-opacity="0.24"/>
<stop offset="0.53" stop-color="white" stop-opacity="0.35"/>
<stop offset="0.66" stop-color="white" stop-opacity="0.5"/>
<stop offset="0.8" stop-color="white" stop-opacity="0.67"/>
<stop offset="0.93" stop-color="white" stop-opacity="0.88"/>
<stop offset="1" stop-color="white"/>
</linearGradient>
<linearGradient id="paint14_linear_202_131" x1="395.99" y1="109.062" x2="401.316" y2="108.719" gradientUnits="userSpaceOnUse">
<stop stop-color="white" stop-opacity="0.1"/>
<stop offset="0.13" stop-color="white" stop-opacity="0.12"/>
<stop offset="0.26" stop-color="white" stop-opacity="0.16"/>
<stop offset="0.4" stop-color="white" stop-opacity="0.24"/>
<stop offset="0.53" stop-color="white" stop-opacity="0.35"/>
<stop offset="0.66" stop-color="white" stop-opacity="0.5"/>
<stop offset="0.8" stop-color="white" stop-opacity="0.67"/>
<stop offset="0.93" stop-color="white" stop-opacity="0.88"/>
<stop offset="1" stop-color="white"/>
</linearGradient>
<linearGradient id="paint15_linear_202_131" x1="392.469" y1="107.505" x2="397.798" y2="107.162" gradientUnits="userSpaceOnUse">
<stop stop-color="white" stop-opacity="0.1"/>
<stop offset="0.13" stop-color="white" stop-opacity="0.12"/>
<stop offset="0.26" stop-color="white" stop-opacity="0.16"/>
<stop offset="0.4" stop-color="white" stop-opacity="0.24"/>
<stop offset="0.53" stop-color="white" stop-opacity="0.35"/>
<stop offset="0.66" stop-color="white" stop-opacity="0.5"/>
<stop offset="0.8" stop-color="white" stop-opacity="0.67"/>
<stop offset="0.93" stop-color="white" stop-opacity="0.88"/>
<stop offset="1" stop-color="white"/>
</linearGradient>
<linearGradient id="paint16_linear_202_131" x1="388.504" y1="103.723" x2="394.902" y2="103.312" gradientUnits="userSpaceOnUse">
<stop stop-color="white" stop-opacity="0.1"/>
<stop offset="0.13" stop-color="white" stop-opacity="0.12"/>
<stop offset="0.26" stop-color="white" stop-opacity="0.16"/>
<stop offset="0.4" stop-color="white" stop-opacity="0.24"/>
<stop offset="0.53" stop-color="white" stop-opacity="0.35"/>
<stop offset="0.66" stop-color="white" stop-opacity="0.5"/>
<stop offset="0.8" stop-color="white" stop-opacity="0.67"/>
<stop offset="0.93" stop-color="white" stop-opacity="0.88"/>
<stop offset="1" stop-color="white"/>
</linearGradient>
</defs>
</svg>
